<?xml version="1.0" standalone="no"?>
<!DOCTYPE svg PUBLIC "-//W3C//DTD SVG 20010904//EN"
 "http://www.w3.org/TR/2001/REC-SVG-20010904/DTD/svg10.dtd">
<svg version="1.0" xmlns="http://www.w3.org/2000/svg"
 width="128.000000pt" height="128.000000pt" viewBox="0 0 128.000000 128.000000"
 preserveAspectRatio="xMidYMid meet">
<metadata>
Created by potrace 1.14, written by Peter Selinger 2001-2017
</metadata>
<g transform="translate(0.000000,128.000000) scale(0.100000,-0.100000)"
fill="#000000" stroke="none">
<path d="M138 1217 c-2 -12 -2 -52 0 -88 l3 -65 82 -42 c45 -23 129 -67 187
-97 110 -59 321 -170 452 -239 43 -23 78 -44 78 -48 0 -3 -75 -46 -167 -94
-93 -48 -190 -99 -218 -114 -27 -15 -95 -51 -150 -80 -219 -116 -250 -133
-259 -141 -9 -8 -11 -157 -2 -166 2 -2 23 7 47 20 24 13 98 52 164 87 66 34
144 76 173 91 131 72 161 89 222 121 36 19 128 68 205 108 77 40 148 80 158
88 21 19 25 143 5 159 -7 6 -58 34 -113 63 -132 70 -215 114 -360 192 -66 36
-165 89 -220 118 -135 71 -228 121 -240 130 -28 19 -44 18 -47 -3z"/>
</g>
</svg>
